<?xml version="1.0" encoding="UTF-8" standalone="no"?>
<!DOCTYPE svg PUBLIC "-//W3C//DTD SVG 1.1//EN"
 "http://www.w3.org/Graphics/SVG/1.1/DTD/svg11.dtd">
<!-- Generated by graphviz version 2.38.0 (20140413.2041)
 -->
<!-- Title: G Pages: 1 -->
<svg width="1440pt" height="548pt"
 viewBox="0.00 0.00 1439.58 548.00" xmlns="http://www.w3.org/2000/svg" xmlns:xlink="http://www.w3.org/1999/xlink">
<g id="graph0" class="graph" transform="scale(1 1) rotate(0) translate(4 544)">
<title>G</title>
<polygon fill="white" stroke="none" points="-4,4 -4,-544 1435.58,-544 1435.58,4 -4,4"/>
<!-- n2 -->
<g id="node1" class="node"><title>n2</title>
<ellipse fill="none" stroke="green" cx="133.238" cy="-522" rx="133.477" ry="18"/>
<text text-anchor="middle" x="133.238" y="-518.3" font-family="Times,serif" font-size="14.00">.././.makefiles/css.makefile</text>
</g>
<!-- n3 -->
<g id="node2" class="node"><title>n3</title>
<ellipse fill="none" stroke="green" cx="410.238" cy="-522" rx="126.178" ry="18"/>
<text text-anchor="middle" x="410.238" y="-518.3" font-family="Times,serif" font-size="14.00">.././.makefiles/js.makefile</text>
</g>
<!-- n12 -->
<g id="node3" class="node"><title>n12</title>
<ellipse fill="none" stroke="red" cx="410.238" cy="-450" rx="100.983" ry="18"/>
<text text-anchor="middle" x="410.238" y="-446.3" font-family="Times,serif" font-size="14.00">../.exclude.cdn.json</text>
</g>
<!-- n11 -->
<g id="node15" class="node"><title>n11</title>
<ellipse fill="none" stroke="red" cx="599.238" cy="-378" rx="96.3833" ry="18"/>
<text text-anchor="middle" x="599.238" y="-374.3" font-family="Times,serif" font-size="14.00">build/.vendor.deps</text>
</g>
<!-- n12&#45;&gt;n11 -->
<g id="edge14" class="edge"><title>n12&#45;&gt;n11</title>
<path fill="none" stroke="black" d="M452.183,-433.465C480.543,-422.961 518.163,-409.028 548.252,-397.884"/>
<polygon fill="black" stroke="black" points="549.574,-401.127 557.736,-394.371 547.143,-394.562 549.574,-401.127"/>
</g>
<!-- n4 -->
<g id="node4" class="node"><title>n4</title>
<ellipse fill="none" stroke="green" cx="1179.24" cy="-522" rx="131.877" ry="18"/>
<text text-anchor="middle" x="1179.24" y="-518.3" font-family="Times,serif" font-size="14.00">../.makefiles/conf.makefile</text>
</g>
<!-- n13 -->
<g id="node5" class="node"><title>n13</title>
<ellipse fill="none" stroke="red" cx="189.238" cy="-450" rx="102.882" ry="18"/>
<text text-anchor="middle" x="189.238" y="-446.3" font-family="Times,serif" font-size="14.00">../package&#45;lock.json</text>
</g>
<!-- n13&#45;&gt;n11 -->
<g id="edge15" class="edge"><title>n13&#45;&gt;n11</title>
<path fill="none" stroke="black" d="M260.187,-436.887C332.9,-424.472 445.681,-405.217 520.957,-392.365"/>
<polygon fill="black" stroke="black" points="521.593,-395.807 530.862,-390.674 520.415,-388.907 521.593,-395.807"/>
</g>
<!-- n8 -->
<g id="node6" class="node"><title>n8</title>
<ellipse fill="none" stroke="red" cx="843.238" cy="-162" rx="134.576" ry="18"/>
<text text-anchor="middle" x="843.238" y="-158.3" font-family="Times,serif" font-size="14.00">../public/dist/bundle.min.js</text>
</g>
<!-- n19 -->
<g id="node7" class="node"><title>n19</title>
<ellipse fill="none" stroke="red" cx="817.238" cy="-90" rx="148.374" ry="18"/>
<text text-anchor="middle" x="817.238" y="-86.3" font-family="Times,serif" font-size="14.00">../public/dist/bundle.min.js.gz</text>
</g>
<!-- n8&#45;&gt;n19 -->
<g id="edge2" class="edge"><title>n8&#45;&gt;n19</title>
<path fill="none" stroke="black" d="M836.811,-143.697C833.883,-135.813 830.351,-126.304 827.098,-117.546"/>
<polygon fill="black" stroke="black" points="830.354,-116.26 823.591,-108.104 823.792,-118.697 830.354,-116.26"/>
</g>
<!-- n6 -->
<g id="node14" class="node"><title>n6</title>
<ellipse fill="none" stroke="red" cx="993.238" cy="-18" rx="27" ry="18"/>
<text text-anchor="middle" x="993.238" y="-14.3" font-family="Times,serif" font-size="14.00">all</text>
</g>
<!-- n8&#45;&gt;n6 -->
<g id="edge7" class="edge"><title>n8&#45;&gt;n6</title>
<path fill="none" stroke="black" d="M913.338,-146.519C935.726,-138.621 958.701,-126.509 974.238,-108 988.571,-90.9261 992.876,-65.6377 993.854,-46.3761"/>
<polygon fill="black" stroke="black" points="997.359,-46.1928 994.096,-36.1129 990.361,-46.0274 997.359,-46.1928"/>
</g>
<!-- n19&#45;&gt;n6 -->
<g id="edge8" class="edge"><title>n19&#45;&gt;n6</title>
<path fill="none" stroke="black" d="M858.502,-72.5881C889.767,-60.1532 932.12,-43.3085 960.939,-31.8463"/>
<polygon fill="black" stroke="black" points="962.529,-34.9805 970.528,-28.0325 959.942,-28.4761 962.529,-34.9805"/>
</g>
<!-- n24 -->
<g id="node8" class="node"><title>n24</title>
<ellipse fill="none" stroke="red" cx="1293.24" cy="-162" rx="133.477" ry="18"/>
<text text-anchor="middle" x="1293.24" y="-158.3" font-family="Times,serif" font-size="14.00">../public/dist/main.min.css</text>
</g>
<!-- n28 -->
<g id="node9" class="node"><title>n28</title>
<ellipse fill="none" stroke="red" cx="1206.24" cy="-90" rx="146.774" ry="18"/>
<text text-anchor="middle" x="1206.24" y="-86.3" font-family="Times,serif" font-size="14.00">../public/dist/main.min.css.gz</text>
</g>
<!-- n24&#45;&gt;n28 -->
<g id="edge4" class="edge"><title>n24&#45;&gt;n28</title>
<path fill="none" stroke="black" d="M1272.18,-144.055C1261.15,-135.179 1247.46,-124.169 1235.42,-114.483"/>
<polygon fill="black" stroke="black" points="1237.39,-111.574 1227.41,-108.032 1233,-117.027 1237.39,-111.574"/>
</g>
<!-- n24&#45;&gt;n6 -->
<g id="edge9" class="edge"><title>n24&#45;&gt;n6</title>
<path fill="none" stroke="black" d="M1326.35,-144.427C1340.11,-135.645 1354.63,-123.446 1362.24,-108 1369.31,-93.6483 1372.72,-84.0912 1362.24,-72 1319.56,-22.7519 1115.67,-18.1887 1030.63,-18.4831"/>
<polygon fill="black" stroke="black" points="1030.37,-14.9845 1020.39,-18.5444 1030.41,-21.9844 1030.37,-14.9845"/>
</g>
<!-- n28&#45;&gt;n6 -->
<g id="edge10" class="edge"><title>n28&#45;&gt;n6</title>
<path fill="none" stroke="black" d="M1157.37,-72.9406C1117.35,-59.7885 1061.79,-41.5303 1026.68,-29.9916"/>
<polygon fill="black" stroke="black" points="1027.51,-26.5795 1016.92,-26.7824 1025.33,-33.2296 1027.51,-26.5795"/>
</g>
<!-- n20 -->
<g id="node10" class="node"><title>n20</title>
<ellipse fill="none" stroke="red" cx="557.238" cy="-162" rx="133.776" ry="18"/>
<text text-anchor="middle" x="557.238" y="-158.3" font-family="Times,serif" font-size="14.00">../public/dist/vendor.min.js</text>
</g>
<!-- n23 -->
<g id="node11" class="node"><title>n23</title>
<ellipse fill="none" stroke="red" cx="465.238" cy="-90" rx="147.574" ry="18"/>
<text text-anchor="middle" x="465.238" y="-86.3" font-family="Times,serif" font-size="14.00">../public/dist/vendor.min.js.gz</text>
</g>
<!-- n20&#45;&gt;n23 -->
<g id="edge6" class="edge"><title>n20&#45;&gt;n23</title>
<path fill="none" stroke="black" d="M534.968,-144.055C523.189,-135.093 508.553,-123.957 495.735,-114.204"/>
<polygon fill="black" stroke="black" points="497.7,-111.301 487.623,-108.032 493.462,-116.872 497.7,-111.301"/>
</g>
<!-- n20&#45;&gt;n6 -->
<g id="edge11" class="edge"><title>n20&#45;&gt;n6</title>
<path fill="none" stroke="black" d="M578.645,-144.204C591.483,-133.971 608.023,-120.499 622.238,-108 639.71,-92.6385 639.372,-82.2887 660.238,-72 711.888,-46.5318 880.835,-28.9056 956.278,-22.1105"/>
<polygon fill="black" stroke="black" points="956.628,-25.5933 966.28,-21.2239 956.01,-18.6206 956.628,-25.5933"/>
</g>
<!-- n23&#45;&gt;n6 -->
<g id="edge12" class="edge"><title>n23&#45;&gt;n6</title>
<path fill="none" stroke="black" d="M561.161,-76.2829C679.814,-60.5525 876.007,-34.542 956.774,-23.8343"/>
<polygon fill="black" stroke="black" points="957.484,-27.2709 966.937,-22.4869 956.564,-20.3316 957.484,-27.2709"/>
</g>
<!-- n27 -->
<g id="node12" class="node"><title>n27</title>
<ellipse fill="none" stroke="green" cx="1293.24" cy="-378" rx="55.7903" ry="18"/>
<text text-anchor="middle" x="1293.24" y="-374.3" font-family="Times,serif" font-size="14.00">.test2.css</text>
</g>
<!-- n26 -->
<g id="node19" class="node"><title>n26</title>
<ellipse fill="none" stroke="red" cx="1293.24" cy="-306" rx="77.9862" ry="18"/>
<text text-anchor="middle" x="1293.24" y="-302.3" font-family="Times,serif" font-size="14.00">build/main.css</text>
</g>
<!-- n27&#45;&gt;n26 -->
<g id="edge25" class="edge"><title>n27&#45;&gt;n26</title>
<path fill="none" stroke="black" d="M1293.24,-359.697C1293.24,-351.983 1293.24,-342.712 1293.24,-334.112"/>
<polygon fill="black" stroke="black" points="1296.74,-334.104 1293.24,-324.104 1289.74,-334.104 1296.74,-334.104"/>
</g>
<!-- n5 -->
<g id="node13" class="node"><title>n5</title>
<ellipse fill="none" stroke="green" cx="1380.24" cy="-522" rx="51.1914" ry="18"/>
<text text-anchor="middle" x="1380.24" y="-518.3" font-family="Times,serif" font-size="14.00">Makefile</text>
</g>
<!-- n10 -->
<g id="node16" class="node"><title>n10</title>
<ellipse fill="none" stroke="red" cx="761.238" cy="-306" rx="79.0865" ry="18"/>
<text text-anchor="middle" x="761.238" y="-302.3" font-family="Times,serif" font-size="14.00">build/bundle.js</text>
</g>
<!-- n11&#45;&gt;n10 -->
<g id="edge19" class="edge"><title>n11&#45;&gt;n10</title>
<path fill="none" stroke="black" d="M635.594,-361.291C659.583,-350.925 691.169,-337.277 716.669,-326.258"/>
<polygon fill="black" stroke="black" points="718.325,-329.356 726.116,-322.176 715.548,-322.93 718.325,-329.356"/>
</g>
<!-- n22 -->
<g id="node23" class="node"><title>n22</title>
<ellipse fill="none" stroke="red" cx="577.238" cy="-306" rx="79.0865" ry="18"/>
<text text-anchor="middle" x="577.238" y="-302.3" font-family="Times,serif" font-size="14.00">build/vendor.js</text>
</g>
<!-- n11&#45;&gt;n22 -->
<g id="edge29" class="edge"><title>n11&#45;&gt;n22</title>
<path fill="none" stroke="black" d="M593.8,-359.697C591.349,-351.898 588.398,-342.509 585.67,-333.829"/>
<polygon fill="black" stroke="black" points="588.951,-332.595 582.614,-324.104 582.273,-334.694 588.951,-332.595"/>
</g>
<!-- n9 -->
<g id="node17" class="node"><title>n9</title>
<ellipse fill="none" stroke="red" cx="809.238" cy="-234" rx="100.182" ry="18"/>
<text text-anchor="middle" x="809.238" y="-230.3" font-family="Times,serif" font-size="14.00">build/bundle.min.js</text>
</g>
<!-- n10&#45;&gt;n9 -->
<g id="edge23" class="edge"><title>n10&#45;&gt;n9</title>
<path fill="none" stroke="black" d="M772.858,-288.055C778.493,-279.837 785.381,-269.791 791.643,-260.66"/>
<polygon fill="black" stroke="black" points="794.623,-262.502 797.392,-252.275 788.85,-258.543 794.623,-262.502"/>
</g>
<!-- n9&#45;&gt;n8 -->
<g id="edge1" class="edge"><title>n9&#45;&gt;n8</title>
<path fill="none" stroke="black" d="M817.469,-216.055C821.337,-208.091 826.039,-198.411 830.362,-189.51"/>
<polygon fill="black" stroke="black" points="833.627,-190.8 834.847,-180.275 827.33,-187.741 833.627,-190.8"/>
</g>
<!-- n18 -->
<g id="node18" class="node"><title>n18</title>
<ellipse fill="none" stroke="red" cx="927.238" cy="-450" rx="76.0865" ry="18"/>
<text text-anchor="middle" x="927.238" y="-446.3" font-family="Times,serif" font-size="14.00">build/config.js</text>
</g>
<!-- n18&#45;&gt;n11 -->
<g id="edge16" class="edge"><title>n18&#45;&gt;n11</title>
<path fill="none" stroke="black" d="M872.707,-437.362C817.144,-425.504 730.727,-407.062 669.938,-394.088"/>
<polygon fill="black" stroke="black" points="670.544,-390.639 660.033,-391.975 669.083,-397.485 670.544,-390.639"/>
</g>
<!-- n18&#45;&gt;n10 -->
<g id="edge20" class="edge"><title>n18&#45;&gt;n10</title>
<path fill="none" stroke="black" d="M907.871,-432.433C878.338,-407.169 821.942,-358.927 788.352,-330.194"/>
<polygon fill="black" stroke="black" points="790.613,-327.522 780.739,-323.681 786.063,-332.841 790.613,-327.522"/>
</g>
<!-- n25 -->
<g id="node20" class="node"><title>n25</title>
<ellipse fill="none" stroke="red" cx="1293.24" cy="-234" rx="98.5829" ry="18"/>
<text text-anchor="middle" x="1293.24" y="-230.3" font-family="Times,serif" font-size="14.00">build/main.min.css</text>
</g>
<!-- n26&#45;&gt;n25 -->
<g id="edge26" class="edge"><title>n26&#45;&gt;n25</title>
<path fill="none" stroke="black" d="M1293.24,-287.697C1293.24,-279.983 1293.24,-270.712 1293.24,-262.112"/>
<polygon fill="black" stroke="black" points="1296.74,-262.104 1293.24,-252.104 1289.74,-262.104 1296.74,-262.104"/>
</g>
<!-- n25&#45;&gt;n24 -->
<g id="edge3" class="edge"><title>n25&#45;&gt;n24</title>
<path fill="none" stroke="black" d="M1293.24,-215.697C1293.24,-207.983 1293.24,-198.712 1293.24,-190.112"/>
<polygon fill="black" stroke="black" points="1296.74,-190.104 1293.24,-180.104 1289.74,-190.104 1296.74,-190.104"/>
</g>
<!-- n14 -->
<g id="node21" class="node"><title>n14</title>
<ellipse fill="none" stroke="red" cx="761.238" cy="-450" rx="71.4873" ry="18"/>
<text text-anchor="middle" x="761.238" y="-446.3" font-family="Times,serif" font-size="14.00">build/test1.js</text>
</g>
<!-- n14&#45;&gt;n11 -->
<g id="edge17" class="edge"><title>n14&#45;&gt;n11</title>
<path fill="none" stroke="black" d="M726.882,-434.155C702.976,-423.825 670.847,-409.942 644.805,-398.689"/>
<polygon fill="black" stroke="black" points="646.08,-395.428 635.512,-394.674 643.304,-401.853 646.08,-395.428"/>
</g>
<!-- n14&#45;&gt;n10 -->
<g id="edge21" class="edge"><title>n14&#45;&gt;n10</title>
<path fill="none" stroke="black" d="M761.238,-431.871C761.238,-407.67 761.238,-363.211 761.238,-334.393"/>
<polygon fill="black" stroke="black" points="764.738,-334.189 761.238,-324.189 757.738,-334.189 764.738,-334.189"/>
</g>
<!-- n16 -->
<g id="node22" class="node"><title>n16</title>
<ellipse fill="none" stroke="red" cx="600.238" cy="-450" rx="71.4873" ry="18"/>
<text text-anchor="middle" x="600.238" y="-446.3" font-family="Times,serif" font-size="14.00">build/test2.js</text>
</g>
<!-- n16&#45;&gt;n11 -->
<g id="edge18" class="edge"><title>n16&#45;&gt;n11</title>
<path fill="none" stroke="black" d="M599.991,-431.697C599.881,-423.983 599.748,-414.712 599.625,-406.112"/>
<polygon fill="black" stroke="black" points="603.125,-406.053 599.483,-396.104 596.126,-406.153 603.125,-406.053"/>
</g>
<!-- n16&#45;&gt;n10 -->
<g id="edge22" class="edge"><title>n16&#45;&gt;n10</title>
<path fill="none" stroke="black" d="M639.572,-434.824C660.434,-425.941 685.543,-412.942 704.238,-396 723.779,-378.292 739.344,-352.416 749.239,-333.125"/>
<polygon fill="black" stroke="black" points="752.464,-334.497 753.76,-323.982 746.19,-331.394 752.464,-334.497"/>
</g>
<!-- n21 -->
<g id="node24" class="node"><title>n21</title>
<ellipse fill="none" stroke="red" cx="564.238" cy="-234" rx="99.3824" ry="18"/>
<text text-anchor="middle" x="564.238" y="-230.3" font-family="Times,serif" font-size="14.00">build/vendor.min.js</text>
</g>
<!-- n22&#45;&gt;n21 -->
<g id="edge30" class="edge"><title>n22&#45;&gt;n21</title>
<path fill="none" stroke="black" d="M574.025,-287.697C572.592,-279.983 570.87,-270.712 569.273,-262.112"/>
<polygon fill="black" stroke="black" points="572.682,-261.297 567.415,-252.104 565.8,-262.575 572.682,-261.297"/>
</g>
<!-- n21&#45;&gt;n20 -->
<g id="edge5" class="edge"><title>n21&#45;&gt;n20</title>
<path fill="none" stroke="black" d="M562.508,-215.697C561.736,-207.983 560.809,-198.712 559.949,-190.112"/>
<polygon fill="black" stroke="black" points="563.426,-189.706 558.949,-180.104 556.461,-190.403 563.426,-189.706"/>
</g>
<!-- n7 -->
<g id="node25" class="node"><title>n7</title>
<ellipse fill="none" stroke="green" cx="979.238" cy="-522" rx="50.0912" ry="18"/>
<text text-anchor="middle" x="979.238" y="-518.3" font-family="Times,serif" font-size="14.00">config.js</text>
</g>
<!-- n7&#45;&gt;n6 -->
<g id="edge13" class="edge"><title>n7&#45;&gt;n6</title>
<path fill="none" stroke="black" d="M991.844,-504.149C998.795,-494.116 1007.05,-480.866 1012.24,-468 1027.38,-430.493 1031.24,-419.447 1031.24,-379 1031.24,-379 1031.24,-379 1031.24,-161 1031.24,-119.406 1015.84,-73.217 1004.64,-45.1433"/>
<polygon fill="black" stroke="black" points="1007.78,-43.5807 1000.75,-35.662 1001.31,-46.2418 1007.78,-43.5807"/>
</g>
<!-- n7&#45;&gt;n18 -->
<g id="edge24" class="edge"><title>n7&#45;&gt;n18</title>
<path fill="none" stroke="black" d="M966.915,-504.411C960.66,-495.992 952.93,-485.585 945.959,-476.201"/>
<polygon fill="black" stroke="black" points="948.607,-473.897 939.834,-467.956 942.988,-478.071 948.607,-473.897"/>
</g>
<!-- n15 -->
<g id="node26" class="node"><title>n15</title>
<ellipse fill="none" stroke="green" cx="761.238" cy="-522" rx="45.4919" ry="18"/>
<text text-anchor="middle" x="761.238" y="-518.3" font-family="Times,serif" font-size="14.00">test1.js</text>
</g>
<!-- n15&#45;&gt;n14 -->
<g id="edge27" class="edge"><title>n15&#45;&gt;n14</title>
<path fill="none" stroke="black" d="M761.238,-503.697C761.238,-495.983 761.238,-486.712 761.238,-478.112"/>
<polygon fill="black" stroke="black" points="764.738,-478.104 761.238,-468.104 757.738,-478.104 764.738,-478.104"/>
</g>
<!-- n17 -->
<g id="node27" class="node"><title>n17</title>
<ellipse fill="none" stroke="green" cx="600.238" cy="-522" rx="45.4919" ry="18"/>
<text text-anchor="middle" x="600.238" y="-518.3" font-family="Times,serif" font-size="14.00">test2.js</text>
</g>
<!-- n17&#45;&gt;n16 -->
<g id="edge28" class="edge"><title>n17&#45;&gt;n16</title>
<path fill="none" stroke="black" d="M600.238,-503.697C600.238,-495.983 600.238,-486.712 600.238,-478.112"/>
<polygon fill="black" stroke="black" points="603.738,-478.104 600.238,-468.104 596.738,-478.104 603.738,-478.104"/>
</g>
</g>
</svg>
